<svg xmlns="http://www.w3.org/2000/svg" xmlns:xlink="http://www.w3.org/1999/xlink" width="30" height="30" viewBox="0 0 30 30">
  <defs>
    <linearGradient id="linear-gradient" x1="0.5" x2="0.5" y2="1" gradientUnits="objectBoundingBox">
      <stop offset="0" stop-color="#d8262d"/>
      <stop offset="1" stop-color="#992231"/>
    </linearGradient>
  </defs>
  <g id="layer1" transform="translate(-0.529 -0.529)">
    <path id="path2665" d="M21.465.529h0a2.379,2.379,0,0,0-1.122.2,1.1,1.1,0,0,0-.521.6,1.216,1.216,0,0,1-.185.358,1.6,1.6,0,0,1-.628.4,1.573,1.573,0,0,1-.723.17,1.2,1.2,0,0,1-.385-.114,1.1,1.1,0,0,0-.8-.045,2.384,2.384,0,0,0-.923.668,2.445,2.445,0,0,0-.653.937,1.117,1.117,0,0,0,.056.794,1.209,1.209,0,0,1,.122.384,1.57,1.57,0,0,1-.155.728,1.567,1.567,0,0,1-.395.631,1.189,1.189,0,0,1-.352.191,1.106,1.106,0,0,0-.594.532,2.387,2.387,0,0,0-.181,1.126,2.656,2.656,0,0,0,.162,1.048,1.068,1.068,0,0,0,.53.548,1.817,1.817,0,0,1,.479.245l-.03.015a2.776,2.776,0,0,1-1.27.291,2.161,2.161,0,0,1-.689-.2,1.479,1.479,0,0,0-1.056-.063,3.552,3.552,0,0,0-1.34.981A4,4,0,0,0,9.9,12.2a1.388,1.388,0,0,0-.015,1.019,2.086,2.086,0,0,1,.231,1.377,5.652,5.652,0,0,0-1.213-1.3,3.5,3.5,0,0,0-.917-.48A3.751,3.751,0,1,0,3.4,12.679,3.867,3.867,0,0,0,.529,16.5v8.024a.5.5,0,0,0,.5.5h7.5a.5.5,0,0,0,.5-.5v-2.3l.645.651a.519.519,0,0,0,.337.148,2.588,2.588,0,0,1,.224,1.114,2.151,2.151,0,0,1-.2.689,1.452,1.452,0,0,0-.063,1.056,3.691,3.691,0,0,0,.981,1.34,3.611,3.611,0,0,0,1.355.956,1.472,1.472,0,0,0,1.055-.081,2.153,2.153,0,0,1,.687-.214,2.773,2.773,0,0,1,1.273.27,2.771,2.771,0,0,1,1.1.693,2.162,2.162,0,0,1,.348.632,1.448,1.448,0,0,0,.7.789,3.556,3.556,0,0,0,1.643.255,3.664,3.664,0,0,0,1.635-.28,1.457,1.457,0,0,0,.687-.8,2.145,2.145,0,0,1,.336-.635,2.778,2.778,0,0,1,1.093-.712,2.777,2.777,0,0,1,1.27-.292,2.157,2.157,0,0,1,.69.2,1.443,1.443,0,0,0,1.056.066,3.558,3.558,0,0,0,1.343-.981,3.546,3.546,0,0,0,.956-1.358,1.444,1.444,0,0,0-.081-1.052,2.153,2.153,0,0,1-.214-.687,2.787,2.787,0,0,1,.27-1.277,2.771,2.771,0,0,1,.693-1.1,2.139,2.139,0,0,1,.628-.347,1.446,1.446,0,0,0,.793-.7,3.542,3.542,0,0,0,.255-1.64,3.667,3.667,0,0,0-.28-1.639,1.471,1.471,0,0,0-.8-.686,2.146,2.146,0,0,1-.635-.336,2.772,2.772,0,0,1-.712-1.092,2.782,2.782,0,0,1-.292-1.27,2.152,2.152,0,0,1,.2-.689,1.457,1.457,0,0,0,.065-1.056,3.049,3.049,0,0,0-.721-1.069,1.757,1.757,0,0,1,.16-.64,1.6,1.6,0,0,1,.391-.635,1.211,1.211,0,0,1,.354-.188,1.132,1.132,0,0,0,.595-.531,2.5,2.5,0,0,0,.181-1.126,2.393,2.393,0,0,0-.2-1.126,1.093,1.093,0,0,0-.6-.52,1.215,1.215,0,0,1-.358-.185,1.59,1.59,0,0,1-.4-.627,1.576,1.576,0,0,1-.17-.724A1.2,1.2,0,0,1,27.41,4.4a1.1,1.1,0,0,0,.048-.8,2.494,2.494,0,0,0-.672-.923,2.387,2.387,0,0,0-.934-.653,1.085,1.085,0,0,0-.8.059,1.191,1.191,0,0,1-.38.122,1.593,1.593,0,0,1-.728-.159,1.6,1.6,0,0,1-.635-.391A1.21,1.21,0,0,1,23.12,1.3,1.083,1.083,0,0,0,22.592.71,2.5,2.5,0,0,0,21.464.529Zm.011,1h0a1.778,1.778,0,0,1,.668.073c.022.013.011-.015.063.1a2.126,2.126,0,0,0,.354.605,2.584,2.584,0,0,0,1.012.664,2.582,2.582,0,0,0,1.188.226,2.1,2.1,0,0,0,.675-.192c.07-.029.1-.042.134-.022a1.829,1.829,0,0,1,.517.405,1.807,1.807,0,0,1,.411.5c.015.046.03.022-.017.142a2.111,2.111,0,0,0-.181.679A2.586,2.586,0,0,0,26.548,5.9a2.586,2.586,0,0,0,.68,1,2.122,2.122,0,0,0,.616.343c.119.05.089.047.111.09a1.765,1.765,0,0,1,.076.642,1.935,1.935,0,0,1-.062.639c-.022.043,0,.044-.115.1a2.1,2.1,0,0,0-.609.351,2.541,2.541,0,0,0-.66,1.011c-.036.088-.057.145-.084.223a2.5,2.5,0,0,0-.769-.437,1.466,1.466,0,0,0-1.052.085c-.115.047-.206.087-.3.122a3.5,3.5,0,1,0-6.317-2.492,2.349,2.349,0,0,0-.773.226,1.468,1.468,0,0,0-.687.8,2.145,2.145,0,0,1-.336.635,1.641,1.641,0,0,1-.179.18,2.006,2.006,0,0,0-.917-.622c-.044-.021-.048-.024-.06-.056a2.013,2.013,0,0,1-.077-.653,1.865,1.865,0,0,1,.074-.672c.015-.03.054-.036.1-.063A2.093,2.093,0,0,0,15.815,7a2.6,2.6,0,0,0,.665-1.016A2.579,2.579,0,0,0,16.7,4.8a2.1,2.1,0,0,0-.191-.675c-.039-.1-.036-.092-.03-.114a1.9,1.9,0,0,1,.414-.535,1.863,1.863,0,0,1,.523-.421.2.2,0,0,1,.118.029,2.119,2.119,0,0,0,.68.181A2.586,2.586,0,0,0,19.4,3.014a2.584,2.584,0,0,0,1-.683,2.126,2.126,0,0,0,.344-.613c.05-.119.041-.092.063-.1a1.877,1.877,0,0,1,.668-.084Zm-8.3.819a.477.477,0,0,0-.146.351v1a.5.5,0,0,0,1,0l0-1a.5.5,0,0,0-.447-.5.487.487,0,0,0-.412.146ZM10.7,3.7a.492.492,0,0,0,0,.706l.707.707a.5.5,0,1,0,.707-.707L11.409,3.7a.494.494,0,0,0-.348-.149.514.514,0,0,0-.358.15Zm-1,2.327a.476.476,0,0,0-.351.145.5.5,0,0,0,.351.858l1,0a.5.5,0,0,0,0-1ZM20.119,8.665c.1.052.145.1.232.3a3.066,3.066,0,0,0,.51.883,3.758,3.758,0,0,0,1.479.967,3.781,3.781,0,0,0,1.739.336,3.049,3.049,0,0,0,.978-.28.5.5,0,0,1,.381-.056,2.984,2.984,0,0,1,.965.729,2.839,2.839,0,0,1,.722.928.484.484,0,0,1-.048.38,3.039,3.039,0,0,0-.267.982,3.773,3.773,0,0,0,.366,1.73,3.791,3.791,0,0,0,.989,1.47,3.033,3.033,0,0,0,.893.49c.2.084.255.131.307.229a2.965,2.965,0,0,1,.166,1.181,2.962,2.962,0,0,1-.147,1.185.5.5,0,0,1-.3.232,3.073,3.073,0,0,0-.886.51,3.772,3.772,0,0,0-.964,1.482,3.779,3.779,0,0,0-.34,1.735,3.033,3.033,0,0,0,.284.978.541.541,0,0,1,.056.381,2.988,2.988,0,0,1-.72.952,2.822,2.822,0,0,1-.941.734.475.475,0,0,1-.376-.048,3.061,3.061,0,0,0-.985-.267,3.777,3.777,0,0,0-1.731.366,3.767,3.767,0,0,0-1.465.989,3.042,3.042,0,0,0-.491.893c-.084.2-.136.258-.229.307a2.972,2.972,0,0,1-1.182.166,2.8,2.8,0,0,1-1.185-.146c-.1-.051-.149-.1-.236-.3a3.041,3.041,0,0,0-.506-.886,3.774,3.774,0,0,0-1.483-.964,3.776,3.776,0,0,0-1.738-.336,3.056,3.056,0,0,0-.979.28c-.2.083-.272.087-.376.055a2.824,2.824,0,0,1-.952-.719,2.836,2.836,0,0,1-.735-.941c-.037-.112-.03-.173.049-.376a3.065,3.065,0,0,0,.266-.985,3.22,3.22,0,0,0-.164-1.182h2.843A6.5,6.5,0,1,0,12.6,18.067l-1.725-2.422.182-.684a2.819,2.819,0,0,0-.229-2.074.385.385,0,0,1,0-.321,3.285,3.285,0,0,1,.7-.907,2.979,2.979,0,0,1,.941-.735.492.492,0,0,1,.38.049,3.043,3.043,0,0,0,.982.266,3.782,3.782,0,0,0,1.73-.369A3.772,3.772,0,0,0,17.03,9.88a3.058,3.058,0,0,0,.494-.89.491.491,0,0,1,.229-.307,2.832,2.832,0,0,1,1.181-.166,2.769,2.769,0,0,1,1.184.147ZM24.53,19.013a5.5,5.5,0,0,1-9.27,4,2,2,0,0,0,1.373-.786,1.473,1.473,0,0,0,.9.3h4a1.5,1.5,0,0,0,1.5-1.5v-3a1.5,1.5,0,0,0-1.5-1.5h-4a1.5,1.5,0,0,0-1.5,1.5v1.276a1.99,1.99,0,0,0-1-.276h-1.5c0-.006,0-.009,0-.015a5.5,5.5,0,0,1,11,0Zm-20-5.483H5.961a3.732,3.732,0,0,1,2.359.576,7.556,7.556,0,0,1,1.47,1.741l2.833,3.972a.5.5,0,0,0,.41.21h2a1,1,0,0,1,0,2H10.238L7.888,19.652a.5.5,0,0,0-.713.705l.856.863v2.81h-6.5V16.5a2.9,2.9,0,0,1,3-2.975Zm13.5,4v2a.5.5,0,0,0,.724.447l.778-.388.775.388a.5.5,0,0,0,.724-.447v-2h.5a.5.5,0,0,1,.5.5v3a.5.5,0,0,1-.5.5h-4a.5.5,0,0,1-.5-.5v-3a.493.493,0,0,1,.5-.5Z" transform="translate(0 0)" fill="url(#linear-gradient)"/>
  </g>
</svg>
