<svg xmlns="http://www.w3.org/2000/svg" width="30" height="29.798" viewBox="0 0 30 29.798">
  <g id="Group_123" data-name="Group 123" transform="translate(-0.328 -1.512)">
    <g id="Group_120" data-name="Group 120" transform="translate(5.245 1.512)">
      <path id="id_101" d="M31.538,1.512a10.084,10.084,0,0,0-3.187,19.65c.5.093.689-.219.689-.485,0-.24-.009-1.035-.014-1.877-2.805.61-3.4-1.19-3.4-1.19a2.67,2.67,0,0,0-1.12-1.475c-.915-.626.069-.613.069-.613a2.12,2.12,0,0,1,1.546,1.039,2.146,2.146,0,0,0,2.934.838,2.149,2.149,0,0,1,.64-1.348c-2.24-.255-4.594-1.12-4.594-4.983a3.9,3.9,0,0,1,1.039-2.706,3.623,3.623,0,0,1,.1-2.668s.847-.271,2.773,1.034a9.562,9.562,0,0,1,5.05,0c1.924-1.3,2.77-1.034,2.77-1.034a3.619,3.619,0,0,1,.1,2.668,3.893,3.893,0,0,1,1.038,2.706c0,3.872-2.359,4.725-4.6,4.974a2.411,2.411,0,0,1,.684,1.867c0,1.349-.011,2.435-.011,2.767,0,.268.182.583.692.483A10.084,10.084,0,0,0,31.538,1.512Z" transform="translate(-21.455 -1.512)" fill="#181616" fill-rule="evenodd"/>
      <path id="id_102" d="M36.7,62.046c-.023.05-.1.065-.173.031s-.114-.1-.091-.152.1-.066.174-.031.115.1.09.152Zm-.124-.092.533.548c-.048.044-.142.024-.206-.047s-.078-.164-.029-.209.141-.024.206.047.079.164.029.209Zm-.1-.1.494.684c-.062.043-.163,0-.225-.087s-.062-.2,0-.24.162,0,.225.085.062.2,0,.243Zm0,0,.545.561c-.055.061-.173.045-.259-.039a.194.194,0,0,1-.057-.258c.056-.061.174-.044.261.039s.114.2.055.257Zm0,0,.752.326c-.025.079-.138.115-.252.082s-.189-.127-.166-.207.138-.117.253-.081.188.126.165.206Zm0,0,.825.06c0,.083-.094.152-.214.154s-.218-.064-.219-.146.095-.152.215-.154S39.627,63.947,39.627,64.029Zm0,0,.768-.131c.014.081-.069.164-.188.187s-.225-.028-.24-.109.07-.166.187-.188.226.028.241.11Zm0,0" transform="translate(-32.881 -47.57)" fill="#181616"/>
    </g>
    <path id="id_103" d="M6.106,97.055H3.585a.118.118,0,0,0-.118.118v1.24a.118.118,0,0,0,.118.118h.983v1.54a2.958,2.958,0,0,1-.832.076c-.72,0-1.726-.264-1.726-2.49s1.048-2.519,2.032-2.519a3.966,3.966,0,0,1,1.452.223.119.119,0,0,0,.141-.117l.281-1.2a.111.111,0,0,0-.045-.092,4.021,4.021,0,0,0-2.134-.393c-1.683,0-3.409.72-3.409,4.183s1.977,3.978,3.642,3.978a4.083,4.083,0,0,0,2.216-.593.1.1,0,0,0,.038-.09V97.173a.118.118,0,0,0-.118-.118Zm12.875-3.2h-1.42a.117.117,0,0,0-.083.035.119.119,0,0,0-.034.084v2.759H15.232V93.977a.118.118,0,0,0-.117-.119H13.7a.117.117,0,0,0-.083.035.119.119,0,0,0-.034.084v7.472a.119.119,0,0,0,.117.119h1.419a.117.117,0,0,0,.083-.035.119.119,0,0,0,.034-.084v-3.2h2.213l0,3.2a.119.119,0,0,0,.118.119h1.422a.117.117,0,0,0,.083-.035.119.119,0,0,0,.034-.084V93.977a.118.118,0,0,0-.117-.119Zm-11.112.17a.93.93,0,1,0,.915.93A.922.922,0,0,0,7.87,94.028Zm.7,2.277H7.151a.136.136,0,0,0-.123.133v4.942c0,.145.09.188.206.188H8.509c.14,0,.174-.069.174-.191V96.424a.118.118,0,0,0-.117-.119Zm15.927.011H23.084a.118.118,0,0,0-.117.119V100.1a1.588,1.588,0,0,1-.866.263c-.508,0-.642-.232-.642-.732v-3.2a.119.119,0,0,0-.034-.084.117.117,0,0,0-.083-.035h-1.43a.119.119,0,0,0-.117.119v3.437c0,1.486.823,1.849,1.956,1.849a3.287,3.287,0,0,0,1.678-.517,2.9,2.9,0,0,0,.052.3.124.124,0,0,0,.1.065l.909,0a.119.119,0,0,0,.118-.119V96.435a.119.119,0,0,0-.118-.119Zm3.85-.168A2.638,2.638,0,0,0,27,96.507v-2.53a.118.118,0,0,0-.117-.119H25.458a.117.117,0,0,0-.084.035.119.119,0,0,0-.034.084v7.472a.119.119,0,0,0,.034.084.117.117,0,0,0,.084.035h.988a.117.117,0,0,0,.1-.064,2.378,2.378,0,0,0,.06-.345,2.539,2.539,0,0,0,1.684.555c1.293,0,2.035-.66,2.035-2.963s-1.185-2.6-1.986-2.6Zm-.556,4.21a1.682,1.682,0,0,1-.82-.238V97.754a1.876,1.876,0,0,1,.728-.238c.507-.046,1,.109,1,1.326,0,1.284-.22,1.537-.9,1.516Zm-15-.028c-.062,0-.221.025-.384.025-.523,0-.7-.245-.7-.561v-2.1h1.065a.117.117,0,0,0,.084-.035.119.119,0,0,0,.034-.084V96.423a.119.119,0,0,0-.034-.084.117.117,0,0,0-.083-.035H11.7l0-1.415c0-.054-.027-.081-.089-.081H10.156c-.056,0-.086.025-.086.079V96.35s-.727.177-.776.191a.118.118,0,0,0-.085.114v.919a.118.118,0,0,0,.117.119h.744V99.9c0,1.642,1.145,1.8,1.918,1.8a3.217,3.217,0,0,0,.845-.14.111.111,0,0,0,.067-.107v-1.011a.121.121,0,0,0-.118-.119Z" transform="translate(0 -70.413)" fill="#100e0f"/>
  </g>
</svg>
